<svg xmlns="http://www.w3.org/2000/svg" version="1.1" xmlns:xlink="http://www.w3.org/1999/xlink" xmlns:svgjs="http://svgjs.dev/svgjs" width="1500" height="952" viewBox="0 0 1500 952"><g transform="matrix(1,0,0,1,0.3005747963632075,0.3854251012145369)"><svg viewBox="0 0 389 247" data-background-color="#ffffff" preserveAspectRatio="xMidYMid meet" height="952" width="1500" xmlns="http://www.w3.org/2000/svg" xmlns:xlink="http://www.w3.org/1999/xlink"><g id="tight-bounds" transform="matrix(1,0,0,1,-0.07794906385686318,-0.09999999999999432)"><svg viewBox="0 0 389.1558981277137 247.2" height="247.2" width="389.1558981277137"><g><svg viewBox="0 0 395.52 251.24261117561903" height="247.2" width="389.1558981277137"><g transform="matrix(1,0,0,1,0,152.6765159375238)"><svg viewBox="0 0 395.52 98.56609523809524" height="98.56609523809524" width="395.52"><g id="textblocktransform"><svg viewBox="0 0 395.52 98.56609523809524" height="98.56609523809524" width="395.52" id="textblock"><g><svg viewBox="0 0 395.52 98.56609523809524" height="98.56609523809524" width="395.52"><g transform="matrix(1,0,0,1,0,0)"><svg width="395.52" viewBox="0 -38.7 157.49 39.25" height="98.56609523809524" data-palette-color="#4e73df"><path d="M8.85-29.45L0-28.75 0.55-34.5 24.3-34.5 23.75-28.75 15.05-29.5 14.85-13 15.45 0 8.45 0 9.05-12.15 8.85-29.45ZM32.2 0Q29.25 0 27.37-1.88 25.5-3.75 25.5-6.93 25.5-10.1 28.4-12.43 31.3-14.75 35.45-14.75L35.45-14.75 38.85-14.75 38.85-15.6Q38.85-18.05 37.85-18.95 36.85-19.85 34.1-19.85L34.1-19.85Q32.95-19.85 31.37-19.38 29.8-18.9 27.85-17.9L27.85-17.9 26.4-21.85Q28.55-23.35 31.62-24.55 34.7-25.75 36.7-25.75L36.7-25.75Q44.55-25.75 44.55-18.15L44.55-18.15 44.55-8.35Q44.55-5.55 46.3-2.1L46.3-2.1 41 0.15Q39.75-2.25 39.15-4.15L39.15-4.15Q36.4 0 32.2 0L32.2 0ZM34.3-5.1L34.3-5.1Q36.3-5.1 38.85-7.15L38.85-7.15 38.85-10.5Q36.2-11.1 34.55-11.1L34.55-11.1Q31.4-11.1 31.4-8.3L31.4-8.3Q31.4-6.85 32.2-5.98 33-5.1 34.3-5.1ZM58.2-4.65L58.2-4.65Q60.8-4.65 60.8-6.95L60.8-6.95Q60.8-7.75 59.67-8.45 58.55-9.15 56.92-9.85 55.3-10.55 53.67-11.43 52.05-12.3 50.92-13.85 49.8-15.4 49.8-17.4L49.8-17.4Q49.8-20.75 52.75-23.25 55.7-25.75 59.55-25.75L59.55-25.75Q61.35-25.75 63.07-25.33 64.8-24.9 66.4-24L66.4-24 63.05-17.9Q62.7-18.2 62.15-18.65 61.6-19.1 60.07-19.83 58.55-20.55 57.37-20.55 56.2-20.55 55.57-20.03 54.95-19.5 54.95-18.57 54.95-17.65 56.67-16.73 58.4-15.8 60.45-15.03 62.5-14.25 64.22-12.48 65.95-10.7 65.95-8.25L65.95-8.25Q65.95-4.75 63.07-2.1 60.2 0.55 56.45 0.55L56.45 0.55Q54.05 0.55 51.97-0.5 49.9-1.55 49-2.6L49-2.6 48.1-3.65 52.05-8.25Q52.35-7.85 52.9-7.25 53.45-6.65 55.07-5.65 56.7-4.65 58.2-4.65ZM91.64-3.3L85.94 0.5 76.54-13.35 76.54-13 77.09-1.25 70.34 0 70.94-12.15 70.34-37.45 77.19-38.7 76.54-14.55 86.54-25.5 91.24-22.3 82.49-14.1 91.64-3.3ZM95.54-34.5L106.39-34.5Q111.19-34.5 114.04-31.78 116.89-29.05 116.89-24.3 116.89-19.55 113.29-16.18 109.69-12.8 104.49-12.8L104.49-12.8 101.64-12.8 102.24 0 95.54 0 96.14-12.15 95.54-34.5ZM104.59-29.45L104.59-29.45 102.14-29.45 101.79-17.65 105.19-17.65Q107.69-17.65 109.07-19.3 110.44-20.95 110.44-24L110.44-24Q110.44-29.45 104.59-29.45ZM119.34-24.15L119.34-24.15 125.39-25.45Q125.84-21.6 125.99-18.15L125.99-18.15Q130.54-25.2 134.54-25.2L134.54-25.2 133.99-17.4Q131.09-17.4 129.41-16.88 127.74-16.35 125.99-14.8L125.99-14.8 125.99-13 126.54-1.25 119.84 0 120.44-12.15Q120.24-18.85 119.34-24.15ZM136.19-10.45Q136.19-16.85 139.64-21.3 143.09-25.75 147.71-25.75 152.34-25.75 154.91-22.75 157.49-19.75 157.49-14.8L157.49-14.8Q157.49-8.2 154.16-3.83 150.84 0.55 145.79 0.55L145.79 0.55Q141.64 0.55 138.91-2.58 136.19-5.7 136.19-10.45L136.19-10.45ZM151.89-12.2L151.89-12.2Q151.89-19.45 146.94-19.45L146.94-19.45Q141.79-19.45 141.79-12.65L141.79-12.65Q141.79-9.1 143.24-7.1 144.69-5.1 147.06-5.1 149.44-5.1 150.66-6.93 151.89-8.75 151.89-12.2Z" opacity="1" transform="matrix(1,0,0,1,0,0)" fill="#4e73df" class="wordmark-text-0" data-fill-palette-color="primary" id="text-0"></path></svg></g></svg></g></svg></g></svg></g><g transform="matrix(1,0,0,1,133.05528359150125,0)"><svg viewBox="0 0 129.40943281699748 129.40742643809523" height="129.40742643809523" width="129.40943281699748"><g><svg xmlns="http://www.w3.org/2000/svg" xmlns:xlink="http://www.w3.org/1999/xlink" version="1.1" x="0" y="0" viewBox="0.25100000000000033 0.25 64.499 64.498" enable-background="new 0 0 65 65" xml:space="preserve" height="129.40742643809523" width="129.40943281699748" class="icon-icon-0" data-fill-palette-color="accent" id="icon-0"><path d="M60.184 0.25H22.031h-9.625H4.817c-2.518 0-4.566 2.048-4.566 4.566l0 27.681c0 0.001 0 0.001 0 0.002s0 0.001 0 0.002v27.681c0 2.518 2.048 4.566 4.566 4.566h38.152 9.625 7.59c2.518 0 4.566-2.049 4.566-4.566V4.816C64.75 2.298 62.701 0.25 60.184 0.25zM52.594 31h-9.625H34v-7.563h27.75V31H52.594zM3.25 34h9.156 9.625H31v7.563H3.25V34zM34 13.813h27.563v6.625H34V13.813zM31 12.313v9.625V31h-7.469V3.25H31V12.313zM3.438 44.563H31v6.625H3.438V44.563zM34 52.688v-9.625V34h7.469v27.75H34V52.688zM61.75 4.816v5.996H34V3.25h26.184C61.047 3.25 61.75 3.953 61.75 4.816zM20.531 3.25V31h-6.625V3.25H20.531zM4.817 3.25h6.089V31H3.25l0-26.184C3.25 3.953 3.953 3.25 4.817 3.25zM3.25 60.184v-5.996H31v7.563H4.816C3.953 61.75 3.25 61.047 3.25 60.184zM44.469 61.75V34h6.625v27.75H44.469zM60.184 61.75h-6.09V34h7.656v26.184C61.75 61.047 61.047 61.75 60.184 61.75z" fill="#4e73df" data-fill-palette-color="accent"></path></svg></g></svg></g><g></g></svg></g><defs></defs></svg><rect width="389.1558981277137" height="247.2" fill="none" stroke="none" visibility="hidden"></rect></g></svg></g></svg>